<svg width="185" height="185" viewBox="0 0 185 185" fill="none" xmlns="http://www.w3.org/2000/svg">
<path d="M119.447 56.76C100.277 58.032 85.6227 73.5864 86.933 93.3085C87.0502 95.0834 88.0132 98.3039 89.4927 99.9209C91.0578 101.63 93.5882 103.667 99.1632 104.995C105.318 106.461 108.367 104.206 109.549 102.131C109.961 101.405 109.891 100.137 109.885 99.2353C109.81 90.5255 108.743 78.045 112.555 69.6803C114.645 65.0931 117.731 62.2357 120.683 62.2357C128.398 62.2357 130.854 69.2022 131.636 81.8158C132.692 98.8113 123.928 110.958 107.115 111.84C97.1312 112.363 92.5981 108.608 92.5981 108.608C92.5981 108.608 89.5242 112.171 77.506 112.171C61.4464 112.171 50.734 98.8226 51.7714 81.146C52.5202 68.3971 58.1087 62.2357 65.4743 62.2357C69.6713 62.2357 72.0844 65.7629 74.7997 70.1494C77.0888 73.8457 79.1276 80.9498 80.3882 85.573C80.3882 85.573 81.7143 78.1239 84.7927 71.3176C87.3547 65.6547 91.669 61.275 91.669 61.275C85.4806 58.9724 80.5145 57.3937 71.2387 56.8502C69.8653 56.769 68.5211 56.7465 67.1973 56.76C55.8737 56.8728 46.4423 60.3571 39.5548 66.1102C33.1724 72.1814 28.9641 80.6791 28.3981 90.2865C27.3764 107.688 38.6301 122.888 54.4732 127.02C56.6022 127.575 58.8101 127.938 61.0878 128.071C61.3224 128.084 61.5547 128.084 61.7892 128.093C74.5359 128.583 86.0173 121.955 92.4989 111.605C99.1383 122.313 111.06 129.115 124.201 128.242C143.37 126.97 157.901 109.887 156.591 90.1647C155.28 70.4426 138.621 55.488 119.451 56.76H119.447Z" fill="#F5AC3C"></path>
<path d="M177.729 56.4939C173.07 45.4793 166.401 35.5878 157.905 27.0923C149.41 18.5968 139.518 11.928 128.504 7.26865C117.101 2.44694 104.986 0 92.4989 0C80.0116 0 67.8987 2.44694 56.4939 7.26865C45.4793 11.928 35.5878 18.5968 27.0923 27.0923C18.5968 35.5878 11.928 45.4793 7.26865 56.4939C2.44694 67.8987 0 80.0138 0 92.4989C0 104.984 2.44694 117.099 7.26865 128.504C11.928 139.518 18.5968 149.412 27.0923 157.905C35.5878 166.401 45.4793 173.07 56.4939 177.729C67.8987 182.553 80.0138 185 92.4989 185C104.984 185 117.099 182.553 128.504 177.729C139.518 173.07 149.412 166.401 157.905 157.905C166.401 149.41 173.07 139.518 177.729 128.504C182.553 117.099 185 104.984 185 92.4989C185 80.0138 182.553 67.8987 177.729 56.4939ZM174.615 127.187C170.127 137.798 163.699 147.328 155.515 155.515C147.331 163.701 137.8 170.127 127.187 174.615C116.202 179.26 104.531 181.617 92.4989 181.617C80.4671 181.617 68.7962 179.26 57.811 174.615C47.2 170.127 37.6694 163.699 29.4828 155.515C21.2985 147.331 14.8711 137.8 10.3831 127.187C5.73734 116.202 3.38061 104.531 3.38061 92.4989C3.38061 80.4671 5.73734 68.7962 10.3831 57.811C14.8711 47.2 21.2985 37.6694 29.4828 29.4828C37.6671 21.2963 47.1978 14.8711 57.811 10.3831C68.7962 5.73734 80.4671 3.38061 92.4989 3.38061C104.531 3.38061 116.202 5.73734 127.187 10.3831C137.798 14.8711 147.328 21.2985 155.515 29.4828C163.699 37.6671 170.127 47.1978 174.615 57.811C179.26 68.7962 181.617 80.4671 181.617 92.4989C181.617 104.531 179.26 116.202 174.615 127.187Z" fill="#F5AC3C"></path>
</svg>